<svg id="Layer_1" data-name="Layer 1" xmlns="http://www.w3.org/2000/svg" viewBox="0 0 1356.17 1067.72"><defs><style>.cls-1{fill:none;stroke:#000;stroke-linecap:round;stroke-linejoin:round;stroke-width:48px;}</style></defs><title>australia-map</title><path class="cls-1" d="M730.5,954.5s506-262,573,0l73-81s15,208,180,241c0,0,37-45,48-38,0,0,22,11,31,38,0,0,74-73,133-51,0,0,144-255,120-363,0,0-58-209-241-333,0,0-97-289-127-272,0,0-20,19-31,99,0,0,22,109-41,129,0,0-121-47-159-99,0,0,54-49,52-80s-207-5-207-5-59,81-33,98c0,0-77-21-67-39,0,0-155,36-204,188,0,0-161,15-247,116,0,0-8,275,42,415C625.5,917.5,662.5,978.5,730.5,954.5Z" transform="translate(-559.03 -70.78)"/><path d="M1701,754.11l-100,200-61.62-123.25-37.85-75.68-.53-1.07h60.5v.14A39.75,39.75,0,0,0,1601.25,794c21.95,0,39.75-13.56,39.75-39.75v-.14Z" transform="translate(-559.03 -70.78)"/><path d="M1601.5,652.5a100,100,0,0,0-100,100c0,.54,0,1.08,0,1.61,0,.36,0,.72,0,1.07a100,100,0,0,0,100,97.32c21.68,0,41.74-5.25,58.11-15.61,25.36-16.05,41.89-44.35,41.89-84.39A100,100,0,0,0,1601.5,652.5ZM1641,754.25c0,26.19-17.8,39.75-39.75,39.75a39.75,39.75,0,0,1-39.75-39.75v-.14a39.75,39.75,0,0,1,79.5,0Z" transform="translate(-559.03 -70.78)"/></svg>