<svg id="Layer_1" data-name="Layer 1" xmlns="http://www.w3.org/2000/svg" viewBox="0 0 310.97 524.9">
  <defs>
    <style>
      .cls-1 {
        fill: #fff;
        stroke: #f15a24;
        stroke-linecap: round;
        stroke-linejoin: round;
        stroke-width: 6px;
      }

      .cls-2 {
        font-size: 72px;
        font-family: AvenirNext-DemiBold, Avenir Next;
        font-weight: 700;
      }

      .cls-2, .cls-5 {
        fill: #104055;
      }

      .cls-3 {
        letter-spacing: -0.06em;
      }

      .cls-4 {
        fill: #1f80aa;
      }
    </style>
  </defs>
  <title>IdlePod</title>
  <path class="cls-1" d="M943.6,612.94" transform="translate(-847.13 -301.02)"/>
  <text class="cls-2" transform="translate(31.62 491.85)">Idle<tspan class="cls-3" x="126.57" y="0">P</tspan><tspan x="165.81" y="0">od</tspan></text>
  <path class="cls-4" d="M1007.85,359.86c9.41,5.89,17.66,11.89,22.34,15.29a210.65,210.65,0,0,1,49.13,50A200.49,200.49,0,0,1,1109,490c11.32,43.93,3.51,96.48-19.44,130.78-16.36,24.44-39.54,38.92-68.89,43a85.07,85.07,0,0,1-11.72.8,108.33,108.33,0,0,1-42.06-9c-35.38-15.12-63-47.92-72.07-85.56q-.41-1.7-.78-3.45c-7.72-36,0-75.39,21.85-110.81a212.64,212.64,0,0,1,41.6-48.59c2.49-2.16,5.72-4.81,9.15-7.6,11.54-9.42,25.9-21.15,37.72-35.34q1.81-2.18,3.48-4.35M983.43,301c5.17,28.82-35,55.72-54.81,72.94a257.28,257.28,0,0,0-50.18,58.7C851.76,476,840.53,526.8,851,575.77q.48,2.25,1,4.5c11.83,49.06,47.28,94.26,97.57,115.75A152.39,152.39,0,0,0,1009,708.57a128.78,128.78,0,0,0,17.8-1.22c114.12-16,147-142.39,124.85-228.36a245.56,245.56,0,0,0-36.21-79.05,255.07,255.07,0,0,0-59.35-60.39c-20.16-14.66-47.17-32.93-72.62-38.53Z" transform="translate(-847.13 -301.02)"/>
  <ellipse class="cls-5" cx="161.49" cy="259.9" rx="78.61" ry="97.88"/>
</svg>
